<svg xmlns="http://www.w3.org/2000/svg" viewBox="0 0 100 100" width="100" height="100">
  <!-- Shield shape -->
  <path d="M50 5 L90 25 L90 55 Q90 85 50 95 Q10 85 10 55 L10 25 Z"
        fill="#1a1a2e" stroke="#bb86fc" stroke-width="2"/>
  <!-- Gear/cog -->
  <circle cx="50" cy="48" r="18" fill="none" stroke="#03dac6" stroke-width="3"/>
  <circle cx="50" cy="48" r="8" fill="#03dac6"/>
  <!-- Gear teeth -->
  <rect x="47" y="26" width="6" height="8" rx="1" fill="#03dac6"/>
  <rect x="47" y="62" width="6" height="8" rx="1" fill="#03dac6"/>
  <rect x="28" y="45" width="8" height="6" rx="1" fill="#03dac6"/>
  <rect x="64" y="45" width="8" height="6" rx="1" fill="#03dac6"/>
  <!-- Diagonal gear teeth -->
  <rect x="34" y="31" width="6" height="8" rx="1" fill="#03dac6" transform="rotate(-45 37 35)"/>
  <rect x="60" y="57" width="6" height="8" rx="1" fill="#03dac6" transform="rotate(-45 63 61)"/>
  <rect x="60" y="31" width="6" height="8" rx="1" fill="#03dac6" transform="rotate(45 63 35)"/>
  <rect x="34" y="57" width="6" height="8" rx="1" fill="#03dac6" transform="rotate(45 37 61)"/>
  <!-- Factory chimney accent -->
  <rect x="44" y="68" width="4" height="10" rx="1" fill="#bb86fc"/>
  <rect x="52" y="72" width="4" height="6" rx="1" fill="#bb86fc"/>
</svg>
